<?xml version="1.0" encoding="UTF-8" standalone="no"?>
<!-- Created with Inkscape (http://www.inkscape.org/) -->

<svg
   version="1.1"
   id="svg1791"
   width="1232"
   height="685.33331"
   viewBox="0 0 1232 685.33331"
   sodipodi:docname="Well8b-.svg"
   inkscape:version="1.3.1 (6036e22fae, 2023-11-19, custom)"
   xmlns:inkscape="http://www.inkscape.org/namespaces/inkscape"
   xmlns:sodipodi="http://sodipodi.sourceforge.net/DTD/sodipodi-0.dtd"
   xmlns="http://www.w3.org/2000/svg"
   xmlns:svg="http://www.w3.org/2000/svg">
  <defs
     id="defs1795" />
  <sodipodi:namedview
     id="namedview1793"
     pagecolor="#ffffff"
     bordercolor="#000000"
     borderopacity="0.25"
     inkscape:showpageshadow="2"
     inkscape:pageopacity="0.0"
     inkscape:pagecheckerboard="0"
     inkscape:deskcolor="#d1d1d1"
     showgrid="false"
     inkscape:zoom="0.77272727"
     inkscape:cx="598.52941"
     inkscape:cy="586.88236"
     inkscape:window-width="1920"
     inkscape:window-height="1031"
     inkscape:window-x="0"
     inkscape:window-y="25"
     inkscape:window-maximized="1"
     inkscape:current-layer="layer2" />
  <g
     inkscape:groupmode="layer"
     id="layer2"
     inkscape:label="Layer 1">
    <path
       style="fill:#000000;stroke-width:1.33333"
       d="m 493.02549,674.58462 c -25.36693,-3.487 -50.29656,-11.38732 -62.87212,-19.92448 -9.76764,-6.63095 -14.85364,-6.87151 -27.54158,-1.30274 -12.18498,5.34802 -19.82846,6.64411 -39.12711,6.63471 -29.28732,-0.0143 -61.83164,-6.91989 -88.79547,-18.84169 -28.3263,-12.5242 -36.22442,-14.80723 -52.00558,-15.03264 -12.73612,-0.18192 -15.49851,-0.71316 -30.23032,-5.81365 -30.19787,-10.45523 -56.82255,-24.4863 -66.23631,-34.9062 -20.25504,-22.41991 -18.28872,-60.86255 4.33396,-84.73128 11.79465,-12.44429 12.10567,-15.90197 2.7615,-30.69972 -12.37702,-19.60067 -16.18001,-35.74816 -16.16427,-68.63361 0.0129,-27.05671 3.13452,-45.06951 12.24637,-70.66666 10.13165,-28.462 9.79325,-38.51467 -1.58241,-47.00783 -1.99511,-1.48956 -7.36946,-3.02541 -13.25095,-3.7868 -23.608643,-3.0562 -28.730599,-4.14159 -38.368148,-8.13047 C 61.347497,265.59712 48.580591,257.69054 39.87692,249.25087 29.291677,238.9867 26.035665,228.78185 26.077075,205.99999 c 0.03371,-18.54464 1.957574,-30.95957 7.54157,-48.66666 8.038722,-25.49113 20.353199,-43.7847 39.854344,-59.205 27.057041,-21.395029 62.568101,-33.892378 117.860341,-41.4784 29.6412,-4.066733 52.24956,-8.636169 66.1001,-13.359669 16.34194,-5.573149 30.45089,-7.368917 67.8999,-8.642205 36.7961,-1.251088 41.58798,-1.839817 58.52574,-7.190452 24.6638,-7.79129 60.24522,-9.457334 170.14093,-7.966583 130.60881,1.771726 165.73297,1.407358 195.33333,-2.026331 47.98178,-5.565962 60.37491,-5.210516 87.98088,2.523369 19.45436,5.450187 37.35935,7.778515 77.4008,10.065039 39.73658,2.269114 65.95868,5.469813 97.95169,11.956085 82.7065,16.767967 154.645,47.396706 186.1328,79.248517 18.4266,18.63952 21.6956,27.87677 20.9615,59.23036 -0.4088,17.45871 -0.8549,20.89748 -3.3095,25.51193 -3.7821,7.11015 -14.9188,17.48262 -35.0596,32.65371 -20.211,15.22397 -35.7066,29.81962 -42.57,40.09765 -2.9217,4.37524 -6.9622,13.38053 -9.3744,20.89295 -2.3316,7.26182 -6.3112,16.64265 -8.8434,20.84628 -6.6831,11.0942 -6.3302,15.59781 2.6572,33.91021 3.9937,8.13746 8.1937,17.93514 9.3334,21.77262 5.702,19.20103 -1.5826,70.37323 -13.3245,93.59943 -6.5763,13.00848 -6.2639,17.04553 2.0831,26.9174 10.2122,12.07784 11.2043,18.70474 6.7136,44.84391 -4.6987,27.3501 -12.6681,47.35955 -21.8636,54.89451 -18.347,15.03405 -48.2222,24.82877 -81.9656,26.87289 -16.4702,0.99774 -34.62569,5.3807 -49.64805,11.98564 -16.4919,7.25107 -24.35788,8.67064 -48.16914,8.69308 -22.3945,0.0211 -32.29375,1.50115 -48.70494,7.28189 -19.81733,6.98055 -48.66825,10.06844 -94.08682,10.07003 -32.7492,10e-4 -50.60499,1.3772 -95.8661,7.38788 -53.19461,7.06425 -72.06236,7.05231 -95.76265,-0.0607 -16.4996,-4.95186 -27.6912,-5.51314 -40,-2.00606 -5.5,1.56709 -14.02571,3.97788 -18.946,5.35733 -11.07589,3.1052 -28.16813,4.20428 -40.02851,2.57392 z"
       id="path1909" />
    <g
       id="layer1"
       inkscape:label="01"
       style="fill:#ececec">
      <path
         style="fill:#ececec;stroke-width:1.33333"
         d="m 507.42648,79.305713 c 1.02672,-5.47285 0.21969,-21.437323 -1.15308,-22.810091 -1.81981,-1.819812 -2.82572,1.026671 -3.36704,9.527937 -0.60297,9.469542 0.54553,17.976438 2.42697,17.976438 0.66688,0 1.60879,-2.112428 2.09315,-4.694284 z"
         id="path2086" />
      <path
         style="fill:#ececec;stroke-width:1.33333"
         d="m 300,78.650612 c 34.04015,-5.79578 42.38568,-7.990174 46.13229,-12.130137 2.22499,-2.458575 2.26608,-3.025696 0.45488,-6.278261 -5.23772,-9.405922 -23.88936,-17.106865 -37.67642,-15.555945 -25.67922,2.888681 -82.24408,22.594915 -82.24408,28.652434 0,3.229117 4.23312,6.602934 10.89178,8.680816 10.71632,3.344097 28.71899,2.372799 62.44155,-3.368907 z"
         id="path2084" />
      <path
         id="path2080"
         style="fill:#ececec;stroke-width:1.33333"
         d="m 615.33398,27.417969 c -59.20627,0.05559 -79.8839,2.553823 -87.95898,10.628906 -11.30034,11.300331 -15.00598,42.322149 -6.11719,51.210937 2.95519,2.95519 10.41492,4.086539 36.07617,5.470704 16.97921,0.915857 89.25519,0.414256 113.33204,-0.78711 15.73279,-0.78502 21.24748,-1.54243 23.23437,-3.191406 10.13367,-8.410192 1.88909,-51.297907 -11.1582,-58.044922 -8.10673,-4.19216 -22.61987,-5.329163 -67.40821,-5.287109 z m 51.57032,20.542969 c 8.09904,0.02682 14.86678,0.289881 16.32031,0.847656 3.32908,1.277485 2.67025,7.024535 -0.89063,7.767578 -1.64999,0.344304 -14.10132,0.879212 -27.66796,1.189453 -13.56666,0.310242 -26.16668,1.106413 -28,1.769531 -1.8777,0.679165 -11.19247,0.785921 -21.33204,0.244141 -9.89999,-0.52898 -26.2442,-1.26329 -36.32031,-1.630859 -18.37306,-0.670238 -26.60395,-2.381027 -19.66211,-4.087891 16.13185,-3.966501 23.9101,-4.400091 61.98242,-3.460938 12.01751,0.296442 20.00346,-0.08558 22.41993,-1.070312 2.45552,-1.000644 19.65198,-1.61306 33.15039,-1.568359 z" />
      <path
         id="path2076"
         style="fill:#ececec;stroke-width:1.33333"
         d="m 783.96484,26.712891 c -43.46073,-0.104387 -64.07901,6.101141 -72.27539,21.75 -2.49724,4.767866 -2.97482,8.245666 -3.43554,25.023437 l -0.53516,19.486328 3.14063,0.761719 c 6.53677,1.58158 22.9377,2.412101 57.14062,2.896484 24.68934,0.349653 37.74395,1.080917 43.33398,2.427735 12.21583,2.943176 15.16633,2.809826 15.93164,-0.72461 4.60126,-21.249877 8.13837,-31.634756 13.42188,-39.410156 4.38926,-6.45937 4.39233,-13.43616 0.01,-18.644531 -7.46408,-8.87055 -26.80114,-13.494519 -56.73243,-13.566406 z m 3.58204,26.736328 c 4.31377,0.02871 5.97951,0.577123 7.93945,1.861328 2.98002,1.95257 6.80324,2.701113 16.84765,3.296875 0.55,0.03263 1,1.547828 1,3.367187 0,3.344758 -0.72768,3.732247 -9.46093,5.052735 -1.90293,0.287729 -6.56857,-0.848093 -10.36914,-2.525391 -6.60307,-2.914114 -7.51674,-2.982924 -20.54102,-1.544922 -7.49648,0.827682 -21.72048,1.551038 -31.60937,1.607422 -16.49985,0.09408 -18.01982,-0.101806 -18.45899,-2.373047 -0.87572,-4.528819 2.1904,-5.505355 20.17188,-6.427734 9.68049,-0.496572 24.6297,-1.328359 33.2207,-1.84961 5.13099,-0.311317 8.6715,-0.482068 11.25977,-0.464843 z" />
      <path
         style="fill:#ececec;stroke-width:1.33333"
         d="m 1005.5103,105.12932 c 1.3693,-1.57888 2.4897,-4.21672 2.4897,-5.861879 0,-6.176452 9.4447,-12.224591 38.5201,-24.667322 12.8765,-5.510421 15.9318,-7.287371 13.8527,-8.056492 -1.4671,-0.542719 -10.949,-2.311356 -21.0708,-3.930305 -32.3712,-5.177652 -50.85236,-2.648725 -66.38757,9.084336 -13.69807,10.345531 -13.33951,16.328743 1.38345,23.08544 4.96951,2.280615 12.93545,6.170002 17.70212,8.643082 4.76667,2.47307 9.1963,4.51389 9.8436,4.53516 0.6473,0.0213 2.2973,-1.25315 3.6667,-2.83202 z"
         id="path2074" />
      <path
         id="path2070"
         style="fill:#ececec;stroke-width:1.33333"
         d="M 494.66602,34.666016 459,34.693359 c -58.51845,0.04271 -85.64025,5.459036 -91.74609,18.326172 -2.79653,5.893243 -1.54262,24.022966 1.98047,28.642578 1.49135,1.955533 2.33758,5.641964 2.42382,10.5625 0.0728,4.157032 0.77927,8.768011 1.57032,10.246091 0.79103,1.47809 1.4375,4.56761 1.4375,6.86524 0,4.79005 0.52644,4.75141 13.33398,-0.97656 20.2081,-9.037755 32.80289,-11.169475 72.22461,-12.220708 16.6231,-0.443278 30.69275,-1.275852 31.26758,-1.851563 C 493.24916,92.527428 494.52567,76.378652 494.59766,55 Z m -16,19.947265 v 3.3125 C 478.66602,62.436642 475.14628,64 464.98633,64 454.74484,64 431.58654,67.13145 416,70.623047 c -13.16934,2.95011 -22.63452,4.151964 -25,3.175781 -2.53951,-1.047997 -2.03212,-6.850014 0.66602,-7.613281 1.28332,-0.363039 5.63464,-1.072029 9.66796,-1.576172 4.03334,-0.504145 8.31377,-1.431547 9.51172,-2.060547 3.64322,-1.912949 35.2718,-6.058209 54.82032,-7.185547 z" />
      <path
         style="fill:#ececec;stroke-width:1.33333"
         d="m 98.32264,114.26125 c 2.11258,-1.36769 23.34065,-2.31142 63.01069,-2.80127 51.05976,-0.63049 84.19302,-5.75725 87.15891,-13.486241 1.94143,-5.059273 -12.51653,-12.230787 -39.46248,-19.574387 -9.27157,-2.526787 -14.43037,-3.009944 -32.36309,-3.03102 -24.06256,-0.02828 -29.89528,1.205763 -56.79343,12.015941 -29.866483,12.003134 -51.155159,24.370477 -48.731659,28.309947 0.77239,1.25554 25.00131,-0.0218 27.181059,-1.43297 z"
         id="path2068" />
      <path
         id="path2064"
         style="fill:#ececec;stroke-width:1.33333"
         d="m 920.97461,36.982422 c -10.47745,-0.133327 -20.88693,0.769211 -29.47266,2.847656 -14.16344,3.428708 -28.479,10.642009 -34.6289,17.449219 -3.31433,3.668568 -5.10057,7.536404 -6.85938,14.841797 -1.3082,5.433744 -3.79648,13.700455 -5.52929,18.371094 -1.73282,4.670638 -3.1504,9.919992 -3.1504,11.666012 0,2.93068 0.53784,3.18054 7,3.25391 3.85,0.0437 9.70001,0.60708 13,1.25 13.39395,2.60949 22.7551,5.08474 24.40625,6.45508 0.96047,0.79712 5.01064,2.30509 9.00196,3.35156 3.99129,1.04646 10.85781,3.41712 15.25781,5.26758 9.59879,4.03686 11.20603,4.20505 14.98438,1.55859 3.4238,-2.39813 5.66538,-9.52554 5.67578,-18.05273 0.012,-9.637192 3.58843,-19.516333 9.30664,-25.701174 2.81712,-3.047021 10.52749,-8.785824 17.13281,-12.751954 16.83096,-10.10603 19.01555,-15.431895 8.67383,-21.136718 -9.68941,-5.344977 -27.33642,-8.447711 -44.79883,-8.669922 z m -49.19336,28.412109 c 3.47144,0.03921 7.6677,0.684677 11.17187,1.867188 5.86301,1.978514 18.4161,4.397 29.04688,5.597656 9.33183,1.053952 13.33398,3.002184 13.33398,6.492187 0,4.176494 -3.44928,5.512495 -8.71875,3.376954 -1.49515,-0.605941 -6.29647,-1.490178 -10.66796,-1.966797 -8.28287,-0.903072 -8.97641,-1.013608 -16.61329,-2.628907 -14.33422,-3.031877 -27.25896,-9.420407 -23.66992,-11.699218 1.15609,-0.734044 3.41718,-1.069557 6.11719,-1.039063 z" />
      <path
         style="fill:#ececec;stroke-width:1.33333"
         d="m 267.89085,142.76234 c 1.6226,-1.02704 1.55296,-3.34124 -0.49096,-16.31292 -3.49278,-22.16699 -6.96641,-24.78834 -22.87481,-17.26234 -8.98364,4.25001 -17.38367,11.79049 -18.61943,16.71415 -0.98853,3.93862 1.11318,8.06107 5.61278,11.00931 2.64902,1.73571 20.40228,5.42859 33.14824,6.8952 0.73333,0.0844 2.18421,-0.38514 3.22418,-1.0434 z"
         id="path2062" />
      <path
         style="fill:#ececec;stroke-width:1.33333"
         d="m 979.73288,147.43447 c 5.49227,-2.89655 18.30424,-16.71615 21.58452,-23.28201 2.3627,-4.72933 2.5798,-6.06401 1.1353,-6.97958 -0.9823,-0.62263 -2.2796,-1.14124 -2.88279,-1.15247 -0.60323,-0.0112 -9.78764,-4.21762 -20.40983,-9.34754 -24.73137,-11.943875 -24.75532,-11.949429 -29.79319,-6.911559 -3.56658,3.566579 -4.03344,4.933019 -4.0325,11.802789 0.003,16.92676 14.86138,35.73469 29.73182,37.63311 0.58642,0.0749 2.68642,-0.71836 4.66667,-1.76274 z"
         id="path2060" />
      <path
         style="fill:#ececec;stroke-width:1.33333"
         d="m 292.54021,147.18206 c 0.54154,-1.41121 1.7868,-1.89989 3.61983,-1.42054 1.53687,0.40189 5.27957,-0.38456 8.31713,-1.74768 3.03756,-1.36312 10.62283,-3.82778 16.85616,-5.47702 12.27046,-3.24656 24.28876,-8.33829 26.78727,-11.34881 C 349.90335,125.03993 360.72092,120 363.54875,120 c 1.48792,0 1.6919,-1.44934 0.98517,-7 -0.49019,-3.85 -1.49909,-8.17543 -2.242,-9.61206 -0.74291,-1.43663 -1.35075,-6.749105 -1.35075,-11.805504 0,-8.851803 -0.15374,-9.287207 -4.13725,-11.716295 -5.57959,-3.40236 -12.56992,-3.203782 -32.65095,0.92753 -40.34402,8.300063 -54.85688,16.761384 -51.02916,29.751159 2.02654,6.87725 3.10468,12.12045 3.58927,17.45517 0.23315,2.56666 0.72217,5.86666 1.08673,7.33333 0.36455,1.46667 0.70874,4.01667 0.76484,5.66667 0.22335,6.56815 11.85328,11.71263 13.97556,6.18206 z"
         id="path2058" />
      <path
         style="fill:#ececec;stroke-width:1.33333"
         d="m 1188.8009,218.42707 c 18.0952,-12.99497 24.0604,-39.7191 14.4944,-64.93449 -3.6969,-9.74472 -11.616,-20.15925 -15.329,-20.15925 -0.979,0 -4.2916,2.69705 -7.3613,5.99347 -6.2064,6.66462 -14.7391,11.07242 -17.0196,8.79193 -0.9738,-0.97379 1.7404,-4.39508 8.9592,-11.29339 12.1807,-11.6398 12.1869,-11.53061 -1.2828,-22.64105 -16.4401,-13.56053 -50.496,-29.53399 -75.9285,-35.613223 -14.7546,-3.526868 -26.0203,-2.955466 -41.3333,2.096454 -24.0883,7.946965 -38,17.648966 -38,26.501069 0,2.47769 0.75,5.10016 1.6667,5.82772 2.997,2.37876 11.718,4.60365 20.1058,5.12943 8.8402,0.55413 25.958,3.51509 38.8942,6.72773 4.4,1.09272 10.5871,2.53652 13.7492,3.20846 9.0421,1.92144 15.9015,4.58818 30.3084,11.78315 23.7189,11.84541 34.8322,26.74211 42.1262,56.46741 7.6124,31.02313 10.3257,33.33538 25.9504,22.11458 z"
         id="path2046" />
      <path
         style="fill:#ececec;stroke-width:1.33333"
         d="m 1066.0696,255.33422 c 1.087,-7.24908 0.2589,-33.45021 -1.1003,-34.80937 -1.7197,-1.71974 -2.1063,-0.0157 -2.3038,10.15656 -0.393,20.23337 0.033,30.65191 1.2528,30.65191 0.6884,0 1.6565,-2.6996 2.1513,-5.9991 z"
         id="path2044" />
      <path
         id="path2040"
         style="fill:#ececec;stroke-width:1.33333"
         d="m 159.14258,119.47461 c -19.49626,0.1152 -41.10075,2.48311 -55.71875,6.65039 -3.616437,1.03097 -10.515139,1.88373 -15.332033,1.89453 -12.531751,0.0281 -23.688915,3.82912 -28.884766,9.83985 -12.280378,14.20629 -23.175171,47.70528 -21.339843,65.61914 2.756617,26.90617 20.829531,49.77093 45.863281,58.02343 5.740503,1.89238 10.613731,2.40892 19.892581,2.10938 10.91528,-0.35237 12.68023,-0.7643 15.7832,-3.67188 5.10984,-4.78807 6.61921,-9.36781 11.85547,-35.94922 2.6001,-13.19915 5.98317,-26.66926 7.51758,-29.93359 4.20561,-8.94703 12.63944,-15.74629 30.79687,-24.82617 29.85428,-14.92908 44.95729,-25.17775 47.11328,-31.9707 2.0421,-6.43408 -6.55811,-11.41472 -26.69336,-15.46094 -8.21751,-1.65133 -19.15576,-2.39334 -30.85351,-2.32422 z m -88.009768,37.96875 c 1.771681,0.0595 5.124308,0.86984 11.197266,2.55273 12.538648,3.47464 33.448592,12.52283 36.888672,15.96289 l 2.70703,2.70704 -3.96289,-0.11914 C 115.78326,178.48131 111.3,177.66796 108,176.73828 92.352161,172.32994 69.333984,161.5389 69.333984,158.61133 c 0,-0.80523 0.420855,-1.21426 1.798828,-1.16797 z" />
      <path
         id="path2036"
         style="fill:#ececec;stroke-width:1.33333"
         d="m 1025.7422,126.26953 c -12.7092,0.11956 -27.38443,13.2247 -27.62306,24.66602 L 998,156.64648 l 10.6426,4.26758 c 5.8529,2.34767 10.8452,4.88343 11.0957,5.63477 0.2504,0.75133 3.8621,3.29433 8.0254,5.65039 13.3849,7.57459 31.1662,19.99237 37.0488,25.875 7.7336,7.73353 9.4547,14.65444 10.3242,41.5 0.7929,24.47882 2.0823,28.82213 9.2129,31.02344 6.0256,1.86018 21.5744,0.64292 30.3477,-2.37696 18.5144,-6.37298 35.6745,-18.86536 40.3105,-29.3457 2.3807,-5.38201 2.5969,-7.77619 1.834,-20.1582 -1.8569,-30.13962 -8.5133,-51.72114 -18.9102,-61.30469 C 1130.9119,150.94153 1117.4849,144 1111.9902,144 c -2.2467,0 -5.5729,-0.97573 -7.3925,-2.16797 -1.8196,-1.19224 -7.3493,-2.9426 -12.2872,-3.89062 -4.9378,-0.94801 -13.1274,-2.685 -18.2011,-3.85938 -5.0737,-1.17439 -11.0744,-2.03761 -13.334,-1.91797 -2.2597,0.11964 -6.508,-0.71559 -9.4414,-1.85742 -6.0171,-2.34223 -17.2526,-4.11555 -25.5918,-4.03711 z m 95.7109,40.39649 c 3.6345,0 4.0126,0.38066 3.6348,3.64257 -0.3165,2.73172 -1.4218,3.93569 -4.4219,4.81446 -4.0748,1.19354 -19.4855,7.31427 -29.5937,11.7539 -6.7352,2.95822 -12.2177,3.16484 -13.2403,0.5 -1.3933,-3.63089 0.2257,-4.97504 11.5469,-9.58789 22.7273,-9.26023 28.098,-11.12304 32.0742,-11.12304 z" />
      <path
         style="fill:#ececec;stroke-width:1.33333"
         d="m 275.01881,291.90068 c 2.94143,-1.3402 3.07487,-1.87786 2.06826,-8.33333 -3.39191,-21.75257 -3.5826,-26.04159 -1.67918,-37.76793 3.79366,-23.37133 1.4387,-32.54605 -5.08208,-19.79943 -3.93926,7.70035 -4.91512,14.872 -5.57892,41 l -0.66901,26.33333 h 3.89832 c 2.14408,0 5.31325,-0.64468 7.04261,-1.43264 z"
         id="path2034" />
      <path
         id="path2030"
         style="fill:#ececec;stroke-width:1.33333"
         d="m 256.39453,147.75586 c -5.94882,0.0569 -26.25173,3.51007 -38.82617,6.76953 -22.27367,5.7736 -42.43203,16.05006 -55.54688,28.31836 -11.07458,10.35974 -17.58482,20.32587 -22.49414,34.43164 -3.43365,9.86581 -4.04623,13.81738 -4.57617,29.49609 -0.54528,16.13203 -0.31638,18.77305 2.10547,24.24805 5.2986,11.97834 13.81194,14.00429 87.60938,20.8418 6.59999,0.61149 15.66125,1.19191 20.13476,1.29101 l 8.13281,0.18164 L 253.86328,281 c 0.51068,-6.78332 1.17615,-17.43268 1.47852,-23.66602 1.24648,-25.69542 1.38629,-26.16905 10.48047,-35.26953 4.49799,-4.50112 14.47774,-12.91416 22.17773,-18.69726 22.70466,-17.05239 36.54056,-32.56118 34.28711,-38.4336 -0.66448,-1.73161 -9.00361,-4.05005 -22.83984,-6.34961 -14.78053,-2.45647 -21.34036,-3.9053 -30.5293,-6.73828 -5.27135,-1.62518 -10.18464,-3.37842 -10.91797,-3.89648 -0.19959,-0.141 -0.75564,-0.20149 -1.60547,-0.19336 z m -88.90039,43.00391 c 3.60065,-0.0791 8.62813,1.46063 14.55664,4.55078 6.47257,3.37374 11.33324,4.86416 17.76367,5.44531 4.86901,0.44004 11.25222,1.74532 14.18555,2.90039 2.93333,1.15506 10.73399,3.978 17.33398,6.27344 9.63117,3.34966 12.08161,4.73733 12.41407,7.03125 0.74102,5.11258 -3.42269,5.70528 -14.41407,2.04883 -5.49999,-1.82966 -12.13615,-4.4079 -14.74609,-5.72852 -2.60992,-1.32062 -9.44518,-2.80997 -15.18945,-3.30859 -8.51726,-0.73931 -12.26616,-1.8647 -20.31836,-6.10547 -5.43063,-2.86011 -10.97244,-5.20117 -12.31446,-5.20117 -3.75947,0 -6.16146,-3.51562 -4.0996,-6 1.02043,-1.22955 2.66773,-1.85881 4.82812,-1.90625 z" />
      <path
         id="path2026"
         style="fill:#ececec;stroke-width:1.33333"
         d="m 960.05664,153.57617 c -7.76312,0.12202 -17.95336,1.82146 -30.22461,5.06836 -21.28658,5.63231 -35.02903,12.38298 -38.13672,18.73438 -2.94527,6.01942 -1.65056,11.18059 5.62891,22.44336 12.59554,19.48774 15.65756,30.37605 17.30859,61.52343 1.31432,24.7955 3.07537,33.7911 7.20313,36.8086 3.96795,2.90067 35.95865,1.72372 58.16406,-2.14063 9.16666,-1.59524 28.9667,-6.0276 44,-9.84961 l 27.334,-6.94922 v -37.9414 c 0,-47.53919 0.6284,-45.81355 -22.2735,-61.08789 -5.6501,-3.7684 -11.1241,-6.85157 -12.164,-6.85157 -1.7999,0 -10.2448,-3.26202 -18.8965,-7.29882 -4.70072,-2.19331 -19.06863,-8.10335 -26.66602,-10.96875 -2.83442,-1.06904 -6.61947,-1.56345 -11.27734,-1.49024 z m 61.57426,50.10938 c 1.3476,0.0208 2.5192,0.0718 3.457,0.15625 1.1026,0.0993 1.599,1.52073 1.334,3.82422 l -0.4219,3.66796 -14.666,0.86133 c -8.0666,0.47384 -18.26799,1.86226 -22.66798,3.08594 -9.29868,2.58602 -37.27639,3.9956 -41.66602,2.09961 -3.28291,-1.41797 -3.96129,-4.61263 -1.33398,-6.28516 0.91665,-0.58355 8.86797,-1.45013 17.66796,-1.92773 8.8,-0.47759 19.89935,-1.77398 24.66602,-2.87891 6.18001,-1.43255 24.1973,-2.74941 33.6309,-2.60351 z" />
      <path
         style="fill:#ececec;stroke-width:1.33333"
         d="m 474.67709,294.85567 c 4.25454,-14.86876 7.57255,-64.51484 4.94194,-73.94426 -2.18086,-7.81727 -10.16022,-0.0167 -12.85998,12.57196 -6.21166,28.96395 -3.11313,74.22994 4.64066,67.79486 1.03838,-0.86177 2.51321,-3.75193 3.27738,-6.42256 z"
         id="path2024" />
      <path
         id="path2020"
         style="fill:#ececec;stroke-width:1.33333"
         d="m 357.68945,166.17773 -22.70898,18.19922 C 304.83084,208.53714 287.61437,227.5084 286.31836,238 c -0.36235,2.93334 -1.40613,10.54251 -2.32031,16.9082 -1.96655,13.69362 -1.1967,19.15961 3.39843,24.11524 11.14912,12.02383 55.24989,23.95591 103.9375,28.12109 4.81663,0.41207 59.60681,-0.54299 60.28125,-1.05078 0.15501,-0.11666 1.54045,-13.38579 3.07813,-29.48633 4.02244,-42.11779 9.24169,-63.48317 17.25,-70.60351 4.10095,-3.64624 7.01811,-9.6412 6.09961,-12.53516 -1.23819,-3.90118 -7.06072,-5.61522 -23.34375,-6.87305 -20.46035,-1.5805 -25.79691,-2.59533 -64.1875,-12.20312 z m -42.09179,57.86329 c 3.79151,-0.12572 8.53885,0.28663 13.33593,1.26562 3.51943,0.71824 23.79976,1.61585 45.06641,1.99609 21.26665,0.38025 40.46602,0.81008 42.66602,0.95508 2.19999,0.14499 8.95,-0.2311 15,-0.83593 l 11,-1.09961 v 3.45898 c 0,2.06191 -1.04703,4.01987 -2.59375,4.84766 -2.70465,1.44747 -29.57303,3.51309 -30.73829,2.36328 -0.36666,-0.3618 -18.96733,-0.98474 -41.33398,-1.38477 -24.05786,-0.43028 -42.19942,-1.31609 -44.41992,-2.16797 -2.0644,-0.79199 -6.0421,-1.43945 -8.83789,-1.43945 -6.064,0 -9.31806,-2.89628 -6.74219,-6 0.97121,-1.17024 3.80614,-1.83327 7.59766,-1.95898 z" />
      <path
         id="path2016"
         style="fill:#ececec;stroke-width:1.33333"
         d="m 839.42578,181.45117 c -42.24952,0.039 -104.00275,6.86731 -114.75976,13.04883 -3.31783,1.90659 -4.07088,3.27434 -4.41602,8.02344 -0.34649,4.76783 1.03177,8.7727 8.23828,23.93554 12.21281,25.69631 13.34599,30.86414 12.21289,55.75586 -0.65596,14.40976 -0.4763,21.04817 0.62891,23.11328 1.97031,3.68153 8.84527,6.55904 19.20703,8.03907 11.06506,1.58049 52.28196,0.44649 73.46289,-2.02149 42.30609,-4.92947 59.0422,-11.36 63.53516,-24.41211 2.48788,-7.22732 2.07562,-30.87117 -0.77149,-44.26757 -4.94271,-23.25679 -15.46081,-47.6266 -24.22461,-56.125 L 867.85742,182 847.5957,181.53711 c -2.62238,-0.06 -5.35328,-0.0885 -8.16992,-0.0859 z m 24.09766,37.11719 c 2.69054,0.0283 4.83588,0.36691 5.8457,1.07422 2.18568,1.53091 2.34581,2.16591 0.91016,3.60156 -3.4604,3.46041 -10.29447,6.10197 -19.20118,7.42188 -4.99312,0.73992 -11.47878,1.92791 -14.4121,2.64062 -2.93334,0.7127 -9.5327,1.31052 -14.66602,1.32813 -5.13332,0.0176 -14.03537,0.93139 -19.7832,2.03125 -5.74784,1.09985 -17.5652,2 -26.25977,2 -14.84116,0 -16.0367,-0.19742 -19.54883,-3.24805 -3.45327,-2.99952 -3.57455,-3.4193 -1.58203,-5.44531 1.80436,-1.83468 3.00637,-1.95887 7.33203,-0.75782 6.63016,1.84094 19.62377,1.92478 18.50782,0.11914 -0.45323,-0.73332 -0.63872,-1.36535 -0.41211,-1.40429 0.22661,-0.0389 13.65675,-0.86106 29.84375,-1.82617 20.98905,-1.25143 30.74151,-2.36148 34,-3.8711 4.94429,-2.29062 13.50659,-3.72625 19.42578,-3.66406 z" />
      <path
         id="path2012"
         style="fill:#ececec;stroke-width:1.33333"
         d="m 564.04883,188.30664 c -20.1071,0.21684 -36.62497,1.13549 -42.58399,2.83594 -23.18629,6.61636 -29.28545,19.01432 -33.52734,68.14844 -2.79282,32.34933 -0.45625,48.39039 7.48633,51.41015 4.92916,1.87408 29.7886,4.00377 61.24219,5.2461 36.39042,1.43731 158.78949,0.79453 164,-0.86133 l 4,-1.27149 0.41796,-13.24023 c 0.78438,-24.83627 -4.58357,-62.66841 -10.92773,-77.01367 -7.86123,-17.77567 -22.39973,-26.41529 -51.90039,-30.8418 -21.20964,-3.18245 -64.6952,-4.77351 -98.20703,-4.41211 z m 117.01758,39.02734 H 706 v 3.33204 c 0,3.85774 -2.64908,4.54537 -25.33398,6.57421 -7.33334,0.65585 -18.13335,2.18608 -24,3.40039 -26.8695,5.56161 -45.34315,5.84467 -75.33204,1.15235 -34.30325,-5.3674 -39.90213,-5.94004 -42.83007,-4.37305 -1.46503,0.78405 -7.79266,1.26356 -14.08985,1.06641 -12.26612,-0.38404 -15.53995,-1.92849 -14.81836,-6.98633 0.36374,-2.5496 1.14043,-2.79668 7.73828,-2.4707 4.03334,0.19926 18.7327,0.92024 32.66602,1.60351 13.93332,0.68326 36.9733,2.20445 51.19922,3.37891 20.85183,1.72151 27.57067,1.83026 34.66601,0.56445 4.84073,-0.86359 12.40079,-2.00551 16.80079,-2.53711 4.39999,-0.5316 6.22974,-1.05809 4.0664,-1.16992 -3.14559,-0.1626 -3.59784,-0.53692 -2.26562,-1.86914 1.21337,-1.21337 8.43774,-1.66541 26.59961,-1.66602 z" />
      <path
         style="fill:#ececec;stroke-width:1.33333"
         d="M 968.24708,334.99999 C 974.56036,328.21678 980,319.62366 980,316.4336 c 0,-3.58006 -2.7702,-5.01924 -12.45759,-6.47196 -7.45406,-1.1178 -12.87574,1.63058 -12.87574,6.52702 0,3.73708 4.72346,17.83658 6.82286,20.3662 2.09927,2.52946 2.87516,2.31649 6.75755,-1.85487 z"
         id="path2010" />
      <path
         style="fill:#ececec;stroke-width:1.33333"
         d="m 696.8004,346.97957 c 5.15268,-3.44054 4.38055,-11.2245 -1.37349,-13.84622 -7.30663,-3.32912 -13.42371,6.31025 -7.88692,12.42832 2.2586,2.49572 6.64124,3.16677 9.26041,1.4179 z"
         id="path2008" />
      <path
         style="fill:#ececec;stroke-width:1.33333"
         d="m 840.47896,351.23364 c 13.6598,-24.512 13.27595,-26.37118 -5.30332,-25.68674 -10.8398,0.39933 -12.70701,0.83661 -15.73736,3.6855 -4.3534,4.09276 -4.64079,11.84048 -0.67705,18.25391 3.28364,5.31304 13.18534,14.08226 15.1716,13.43638 0.77028,-0.25048 3.71604,-4.61056 6.54613,-9.68905 z"
         id="path2006" />
      <path
         style="fill:#ececec;stroke-width:1.33333"
         d="m 1023.0512,376.12092 c 23.4181,-10.03819 60.4184,-39.73078 77.1068,-61.87796 13.4376,-17.83306 17.4923,-27.9095 13.3092,-33.07538 l -2.5149,-3.10583 -15.446,3.01027 c -18.6144,3.62776 -63.7469,15.85221 -84.6772,22.9354 -22.28801,7.54266 -28.87933,15.47949 -28.78358,34.65924 0.0569,11.41435 3.49987,21.01737 10.30816,28.75201 9.43182,10.71514 19.40562,13.54254 30.69752,8.70225 z"
         id="path2004" />
      <path
         style="fill:#ececec;stroke-width:1.33333"
         d="m 578.63188,372.33332 c 4.89513,-11.37429 7.186,-15.63903 15.00767,-27.93863 2.8932,-4.54957 4.89389,-8.8649 4.446,-9.58962 -1.33654,-2.16255 -11.89191,-3.13983 -17.51368,-1.62153 -2.89127,0.78086 -6.09431,2.77434 -7.1484,4.44896 -3.4109,5.41882 -3.63028,45.03415 -0.2494,45.03415 0.55588,0 3.01189,-4.65 5.45781,-10.33333 z"
         id="path2002" />
      <path
         style="fill:#ececec;stroke-width:1.33333"
         d="m 978.43265,383.04997 c 5.0049,-3.72589 6.38495,-8.3966 4.41938,-14.95708 -1.75119,-5.84496 -5.45038,-8.71748 -9.55043,-7.41617 -5.97744,1.89717 -15.96827,15.56116 -15.96827,21.83905 0,1.44211 1.05,2.92747 2.33334,3.3008 4.79588,1.39515 15.24486,-0.1453 18.76598,-2.7666 z"
         id="path2000" />
      <path
         style="fill:#ececec;stroke-width:1.33333"
         d="m 341.33333,392.60348 c 6.83198,-1.35995 13.8632,-5.26368 17.70566,-9.83017 1.97649,-2.34894 5.99178,-11.90146 9.69237,-23.05847 3.47487,-10.47651 7.73184,-22.01048 9.45996,-25.63105 1.72811,-3.62059 3.14201,-7.02772 3.14201,-7.57143 0,-2.17084 -4.3797,-5.13094 -11.66577,-7.88452 -10.07107,-3.80609 -48.77341,-11.74842 -62.43827,-12.81332 -14.10078,-1.09886 -18.83518,0.539 -26.6351,9.21439 -17.63971,19.61959 -21.65371,46.84172 -9.29602,63.0435 3.67554,4.81886 13.09551,10.49358 15.80143,9.51899 0.86189,-0.31043 2.76707,0.0747 4.23373,0.85573 2.78244,1.4818 39.84514,6.16898 43.33334,5.48019 1.1,-0.2172 4.1,-0.81293 6.66666,-1.32384 z"
         id="path1998" />
      <path
         style="fill:#ececec;stroke-width:1.33333"
         d="m 1032.8004,400.31291 c 6.2506,-4.17364 5.6821,-18.97959 -0.7288,-18.97959 -2.727,0 -8.7017,6.35053 -10.09,10.72476 -1.8409,5.80013 5.7831,11.61727 10.8188,8.25483 z"
         id="path1996" />
      <path
         style="fill:#ececec;stroke-width:1.33333"
         d="m 251.2736,407.17175 c 1.18709,-0.45554 3.18617,-2.70554 4.44239,-5 1.93664,-3.53728 2.30576,-8.43026 2.42698,-32.17176 0.15674,-30.69223 1.53738,-40.64377 6.9176,-49.86159 l 3.4213,-5.8616 -3.41056,-2.93362 c -3.55708,-3.05968 -23.23572,-8.67652 -30.39824,-8.67652 -2.45754,0 -4.40543,0.82174 -4.88011,2.05876 -0.43452,1.13232 1.06559,6.75454 3.33355,12.49385 4.91526,12.43856 8.20314,34.79218 8.21454,55.84901 0.009,17.16727 1.78175,29.08577 4.82568,32.44928 2.56842,2.83805 2.27198,2.74204 5.10687,1.65419 z"
         id="path1994" />
      <path
         style="fill:#ececec;stroke-width:1.33333"
         d="m 515.2222,414.53449 c 23.52779,-0.80601 43.07252,-1.75074 43.43275,-2.09938 0.70422,-0.6816 5.30936,-75.49929 4.68848,-76.17183 -0.78075,-0.84569 -56.71496,-11.01344 -71.34343,-12.96884 -25.27325,-3.37829 -50.85519,-3.98177 -63.84039,-1.50598 -21.15249,4.03297 -26.56149,9.36294 -33.46094,32.97198 -5.37362,18.38784 -6.59842,30.98747 -3.57972,36.82497 2.84072,5.49334 13.68214,14.37626 22.4149,18.36566 13.60943,6.21718 31.05098,7.00333 101.68835,4.58342 z"
         id="path1992" />
      <path
         style="fill:#ececec;stroke-width:1.33333"
         d="m 624.46223,417.33617 c 2.82089,-0.89544 6.72089,-2.45869 8.66666,-3.47392 1.94578,-1.01521 4.8189,-1.84953 6.3847,-1.85405 4.936,-0.0143 10.52761,-3.11397 20.74578,-11.50052 9.12891,-7.49255 10.1562,-8.85619 13.0481,-17.32027 2.31945,-6.78868 3.2927,-13.11422 3.72761,-24.22746 0.95285,-24.34772 -1.09988,-26.38373 -26.36841,-26.15371 -17.85766,0.16258 -27.45646,2.70204 -38.88394,10.28716 -20.65685,13.71124 -29.8348,41.06387 -22.26093,66.3432 1.88279,6.28419 6.90627,11.26129 13.76173,13.63472 4.7718,1.65204 5.65464,1.55628 10.62698,-1.15269 2.98254,-1.62492 7.73082,-3.68703 10.55172,-4.58246 z"
         id="path1990" />
      <path
         style="fill:#ececec;stroke-width:1.33333"
         d="m 682.43837,426.20545 c 2.46271,-1.32201 5.23258,-4.28337 6.22258,-6.65277 1.64732,-3.94259 6.19792,-35.63309 5.26746,-36.68276 -0.22593,-0.25488 -6.41177,5.44512 -13.74633,12.66667 -7.33456,7.22153 -15.17857,14.82028 -17.43113,16.88609 -4.11495,3.77381 -20.31335,11.91339 -27.09672,13.61591 -1.9997,0.50189 -3.26802,1.50761 -2.81851,2.23493 0.508,0.82197 9.20843,1.13171 22.99079,0.81847 18.07294,-0.41075 22.99428,-0.94456 26.61186,-2.88654 z"
         id="path1988" />
      <path
         style="fill:#ececec;stroke-width:1.33333"
         d="m 872.07349,427.29532 c 21.82771,-11.28756 74.14404,-51.55599 81.99887,-63.1154 4.71423,-6.93763 4.31916,-13.70644 -1.47609,-25.29048 -5.3507,-10.6954 -12.33199,-17.54372 -22.9179,-22.48132 -21.76073,-10.1499 -48.33716,-5.74785 -64.51374,10.68591 -8.45502,8.58944 -18.67134,29.02516 -22.44959,44.90596 -2.97807,12.51741 -3.60048,32.09112 -1.28555,40.4277 1.67415,6.02895 9.64086,15.30406 15.13104,17.61606 4.21931,1.77682 8.08727,1.09154 15.51296,-2.74843 z"
         id="path1986" />
      <path
         style="fill:#ececec;stroke-width:1.33333"
         d="m 577.93727,430.45263 c 5.47605,-2.49506 4.41757,-10.70418 -2.33631,-18.11931 -4.49137,-4.93112 -8.31424,-3.83339 -17.04096,4.89333 -7.5882,7.5882 -9.77199,12.45972 -6.22667,13.8903 3.31642,1.3382 22.2893,0.84593 25.60394,-0.66432 z"
         id="path1984" />
      <path
         style="fill:#ececec;stroke-width:1.33333"
         d="m 494.12276,435.95332 c 1.99633,-0.75901 5.40763,-3.11827 7.58065,-5.24281 l 3.95096,-3.86279 -5.16052,-1.03353 c -8.58705,-1.71979 -16.25369,-1.11151 -19.16185,1.52033 -7.45731,6.74877 1.62055,12.86569 12.79076,8.6188 z"
         id="path1982" />
      <path
         style="fill:#ececec;stroke-width:1.33333"
         d="m 841.42099,438.61975 c 3.6009,-1.92715 3.27312,-3.15063 -2.29219,-8.55558 -5.61107,-5.4494 -9.64311,-5.97034 -15.25901,-1.97146 -5.80116,4.13078 -7.46862,7.9281 -4.45043,10.13505 2.89405,2.1162 18.26812,2.39009 22.00163,0.39199 z"
         id="path1980" />
      <path
         style="fill:#ececec;stroke-width:1.33333"
         d="m 758.61347,441.84509 c 4.00406,-1.0148 10.00406,-1.85448 13.33333,-1.86593 21.21352,-0.0729 39.68168,-12.0552 46.93211,-30.44972 3.90429,-9.90529 4.21297,-30.34273 0.63618,-42.12145 -5.61202,-18.481 -15.28044,-33.19344 -25.10818,-38.20719 -6.43682,-3.28381 -20.50451,-6.09341 -36.5897,-7.30768 -16.37744,-1.23633 -24.42788,1.14824 -34.28224,10.15458 -18.59844,16.99793 -26.26816,40.19434 -22.24746,67.28562 2.69746,18.17551 9.6011,30.22413 22.9591,40.06959 l 7.57994,5.58677 9.7534,-0.64974 c 5.36436,-0.35736 13.02944,-1.48004 17.03352,-2.49485 z"
         id="path1978" />
      <path
         style="fill:#ececec;stroke-width:1.33333"
         d="m 406.27536,445.99998 c 3.79812,-6.72061 4.01047,-16.23919 0.51511,-23.09066 -3.8218,-7.49135 -16.95556,-19.78389 -25.92835,-24.26765 -8.93721,-4.46598 -11.79493,-4.86747 -14.18108,-1.99234 -2.80703,3.38227 -0.40396,8.03434 10.00881,19.37591 11.45399,12.47565 16.0405,19.68021 17.38468,27.30808 0.51691,2.93333 1.55911,6.11229 2.31598,7.06434 2.43569,3.06378 6.75372,1.14274 9.88485,-4.39768 z"
         id="path1976" />
      <path
         style="fill:#ececec;stroke-width:1.33333"
         d="m 1103.2691,464.06565 c 13.3956,-12.99316 23.1397,-63.66414 16.4223,-85.399 -4.5384,-14.68441 -14.9191,-22.59433 -29.6914,-22.62436 -28.678,-0.0583 -52.6278,35.45974 -52.6573,78.09207 -0.01,7.40722 0.6723,15.50722 1.5054,18 4.2847,12.82033 16.1807,17.20894 45.4147,16.75417 l 14.2627,-0.22188 z"
         id="path1974" />
      <path
         style="fill:#ececec;stroke-width:1.33333"
         d="m 748.10443,471.63492 c 5.39828,-3.6379 10.56224,-10.93103 10.56224,-14.91719 0,-2.70519 -0.52724,-2.85731 -8.33334,-2.40433 -12.36598,0.7176 -14.19285,1.32926 -15.13073,5.0661 -1.24368,4.95522 3.73207,15.28715 7.36213,15.28715 0.5725,0 3.06536,-1.36428 5.5397,-3.03173 z"
         id="path1972" />
      <path
         style="fill:#ececec;stroke-width:1.33333"
         d="m 880.74992,474.57466 c 1.99244,-2.20162 2.60405,-5.43533 3.02899,-16.01472 0.81485,-20.2875 -2.10638,-24.52975 -14.59986,-21.20219 -7.15446,1.90556 -10.51238,4.72763 -10.51238,8.83486 0,8.52256 12.99914,31.14071 17.89725,31.14071 0.92919,0 2.81289,-1.2414 4.186,-2.75866 z"
         id="path1970" />
      <path
         style="fill:#ececec;stroke-width:1.33333"
         d="m 187.33333,479.76701 c 20.92672,-7.58491 26.73131,-7.50988 32.59508,0.42131 5.55167,7.50902 5.279,9.27812 8.76272,-56.855 1.08164,-20.53333 2.31878,-43.93333 2.74918,-52 0.4304,-8.06667 0.14457,-20.76163 -0.63518,-28.21103 -3.27549,-31.2931 -12.9417,-40.76819 -43.57864,-42.71697 -32.39266,-2.06046 -43.38205,14.14723 -54.63607,80.57993 -5.14133,30.34938 -4.19514,48.04899 3.36865,63.01473 6.35701,12.57802 26.19592,38.0242 31.16282,39.97068 3.52024,1.37955 6.54056,0.75138 20.21144,-4.20365 z"
         id="path1968" />
      <path
         style="fill:#ececec;stroke-width:1.33333"
         d="m 1010.4621,482.68838 c 3.9057,-5.12137 8.8401,-10.77472 10.9653,-12.56297 l 3.8641,-3.25137 -1.2112,-20.43703 c -0.6883,-11.61425 -2.1507,-23.49326 -3.3876,-27.51648 -2.7677,-9.00229 -9.4917,-16.45537 -18.2416,-20.21948 -10.19417,-4.38542 -29.86575,-6.16462 -47.21442,-4.27033 -38.77093,4.23339 -57.90335,21.83697 -57.90335,53.27642 0,16.06992 4.20655,21.70156 23.41296,31.34476 17.386,8.7292 37.14284,12.60956 65.26743,12.81894 l 17.34708,0.1292 7.1013,-9.3116 z"
         id="path1966" />
      <path
         style="fill:#ececec;stroke-width:1.33333"
         d="m 312.96745,510.66521 c 42.40047,-2.89539 57.59607,-9.80427 68.8255,-31.2924 3.89594,-7.45511 4.20154,-9.00868 4.20418,-21.37283 0.003,-12.65501 -0.2293,-13.76153 -4.56072,-21.75011 -5.99072,-11.04894 -14.97105,-18.90995 -30.29004,-26.5147 -10.73016,-5.32673 -14.14672,-6.35669 -24.15545,-7.28193 -6.41168,-0.59272 -14.35759,-1.40233 -17.65759,-1.79913 -3.3,-0.39682 -8.7,-0.94119 -12,-1.20972 -3.3,-0.26855 -9.19377,-1.14616 -13.09728,-1.95027 -8.5317,-1.75749 -11.52189,-0.53781 -19.77373,8.06559 -12.91993,13.47037 -22.61428,34.3969 -26.57984,57.3761 -5.21907,30.24295 6.61215,44.43479 39.70837,47.63113 15.75732,1.5218 14.57819,1.51852 35.3766,0.0983 z"
         id="path1964" />
      <path
         style="fill:#ececec;stroke-width:1.33333"
         d="m 461.33333,526.18209 c 16.09042,-8.10805 24.09984,-21.14935 24.13974,-39.30533 0.0537,-24.43528 -10.81446,-47.60407 -24.84366,-52.96187 -16.5091,-6.30488 -35.54694,8.1866 -61.419,46.75176 -7.37952,11 -13.80436,20.66615 -14.2774,21.48035 -0.7784,1.33976 15.50291,15.14392 24.58654,20.84576 13.80846,8.66765 37.98841,10.15601 51.81378,3.18933 z"
         id="path1962" />
      <path
         style="fill:#ececec;stroke-width:1.33333"
         d="M 269.42099,530.61974 C 270.83944,529.86061 272,528.60133 272,527.82136 c 0,-2.29498 -8.06317,-9.15471 -10.76076,-9.15471 -5.40575,0 -5.64533,8.75065 -0.32433,11.84559 3.09666,1.80114 5.28968,1.82886 8.50608,0.10746 z"
         id="path1960" />
      <path
         style="fill:#ececec;stroke-width:1.33333"
         d="m 626.94991,548.6241 c 18.72322,-2.81219 26.0601,-5.10392 43.05009,-13.44709 33.43773,-16.42005 51.17243,-36.75673 52.43396,-60.12691 0.42321,-7.84012 -0.012,-10.71377 -2.35624,-15.55622 -3.43856,-7.10314 -6.81273,-9.51602 -17.04277,-12.18732 -9.61922,-2.5118 -43.0611,-4.6121 -73.70162,-4.62876 -44.10541,-0.024 -93.40592,-3.95801 -106.6053,-8.50675 l -5.93866,-2.04656 -5.72801,4.69368 c -3.15041,2.58152 -5.72803,5.25351 -5.72803,5.93775 0,0.68424 -0.88458,1.24406 -1.96576,1.24406 -3.00353,0 -5.87257,6.80276 -7.41777,17.58826 -3.06577,21.39913 3.56376,52.11516 14.2808,66.16593 7.53275,9.87593 27.62645,15.09481 77.7694,20.19881 12.83333,1.30629 23.78728,2.45125 24.34211,2.54437 0.55482,0.0931 7.12833,-0.74985 14.6078,-1.87325 z"
         id="path1958" />
      <path
         style="fill:#ececec;stroke-width:1.33333"
         d="m 738.11409,546.17542 c -2.24452,-11.58602 -2.06757,-15.31489 1.12991,-23.8098 4.52943,-12.03356 5.76144,-23.8364 2.79749,-26.80033 -1.51832,-1.51832 -2.926,-1.86949 -4.33441,-1.08129 -1.14721,0.64201 -3.15975,0.88645 -4.47231,0.54321 -5.29054,-1.38351 -39.90144,39.04319 -39.90144,46.60622 0,0.21218 2.72643,0.16892 6.05872,-0.0961 4.10103,-0.32617 8.17742,0.42956 12.61564,2.33883 3.6063,1.5514 10.23366,3.20501 14.72747,3.6747 4.94373,0.51672 8.44183,1.56088 8.85741,2.6439 1.29962,3.38673 3.32946,0.15114 2.52152,-4.01934 z"
         id="path1956" />
      <path
         style="fill:#ececec;stroke-width:1.33333"
         d="m 439.319,555.28309 c 11.09513,-4.90679 24.28729,-7.35682 44.36705,-8.23978 10.97067,-0.48241 18.56034,-1.417 19.98862,-2.46138 2.16357,-1.58203 2.12754,-2.04392 -0.59679,-7.65141 -3.98512,-8.20259 -10.73651,-15.5972 -14.24044,-15.5972 -1.58748,0 -5.74937,2.36589 -9.24867,5.25753 -8.26617,6.83077 -18.76954,10.67172 -33.3119,12.18176 -17.14899,1.78069 -20.94354,4.2775 -20.94354,13.78086 0,7.34892 2.45652,7.82836 13.98567,2.72962 z"
         id="path1954" />
      <path
         style="fill:#ececec;stroke-width:1.33333"
         d="m 414.65417,595.33331 c 1.46099,-2.90384 2.0125,-8.39232 2.0125,-20.02804 0,-15.38836 -0.17294,-16.37932 -4.33324,-24.8301 -7.72179,-15.68517 -21.62162,-25.24485 -45.52132,-31.30751 -13.24794,-3.36061 -16.14544,-3.33157 -16.14544,0.16183 0,8.76163 30.401,54.68862 48.09908,72.66362 9.07904,9.2211 12.5613,9.95316 15.88842,3.3402 z"
         id="path1952" />
      <path
         style="fill:#ececec;stroke-width:1.33333"
         d="m 579.30303,589.82683 c 2.68606,-8.52857 6.34173,-18.80322 8.12369,-22.83257 3.84067,-8.68443 3.72516,-7.65192 1.14471,-10.23237 -2.61858,-2.61858 -13.7514,-2.80966 -17.19032,-0.29506 -3.53203,2.58268 -4.05626,13.2361 -1.53936,31.28288 1.92082,13.77287 2.81225,17.5836 4.11325,17.5836 0.25536,0 2.66197,-6.97792 5.34803,-15.50648 z"
         id="path1950" />
      <path
         style="fill:#ececec;stroke-width:1.33333"
         d="m 1053.4957,606.15354 c 6.8774,-1.74888 17.5718,-5.1378 23.7654,-7.53095 20.0609,-7.7513 26.7545,-17.67458 35.4336,-52.53053 6.2877,-25.25188 3.328,-37.74121 -12.884,-54.36676 -12.0746,-12.38265 -27.4694,-17.49732 -39.2194,-13.02998 -2.4818,0.94357 -4.1095,0.92449 -5.2982,-0.0621 -1.0593,-0.8791 -4.3105,-1.0799 -8.4957,-0.52472 -4.399,0.58355 -7.4259,0.36306 -8.6199,-0.62789 -1.4423,-1.197 -2.2784,-0.85851 -3.8666,1.56543 -3.5309,5.38881 -16.7823,18.28732 -18.7876,18.28732 -1.0596,0 -3.1402,1.95 -4.6235,4.33333 -1.4834,2.38333 -4.8214,7.33333 -7.4179,11 -4.67014,6.59489 -5.88373,10.51559 -3.6771,11.87936 0.626,0.38687 1.5498,5.63949 2.0529,11.67251 0.5032,6.03299 1.641,11.84775 2.5286,12.92169 1.1141,1.34813 1.5018,6.94289 1.2524,18.07285 -0.4656,20.77149 0.6707,33.20932 2.954,32.33315 0.931,-0.35728 3.4285,0.49472 5.55,1.8933 2.1215,1.39859 5.0573,2.5718 6.524,2.60714 1.4666,0.0353 5.6666,1.18712 9.3333,2.55953 8.7147,3.26187 8.9029,3.25824 23.4957,-0.45264 z"
         id="path1948" />
      <path
         style="fill:#ececec;stroke-width:1.33333"
         d="m 229.33333,610.30183 c 10.13543,-5.03089 13.45314,-9.32786 17.67382,-22.89048 2.42621,-7.79632 2.9182,-12.50029 2.8669,-27.41137 -0.12506,-36.37176 -10.25352,-56.92158 -32.27188,-65.47733 -10.5077,-4.08301 -30.96773,-4.97441 -42.9355,-1.8706 -19.5377,5.06703 -37.26823,17.90915 -43.93864,31.82449 -5.55895,11.5967 -4.94191,35.34324 1.23289,47.44683 3.68563,7.22444 13.64573,15.70616 24.45803,20.8277 11.15452,5.28366 57.66348,21.75923 61.58105,21.81479 1.46667,0.0208 6.56667,-1.89801 11.33333,-4.26403 z"
         id="path1946" />
      <path
         style="fill:#ececec;stroke-width:1.33333"
         d="m 957.59784,627.2065 c 9.94649,-3.10931 11.88572,-4.29227 19.12527,-11.66667 4.43104,-4.51358 10.02188,-11.65096 12.4241,-15.86081 4.05831,-7.11213 4.24952,-7.98105 2.69954,-12.26747 -1.29647,-3.58532 -1.3167,-5.38452 -0.0908,-8.0751 2.52166,-5.53446 1.9478,-19.58452 -1.08931,-26.6698 -1.46667,-3.4216 -2.66667,-9.07832 -2.66667,-12.5705 0,-5.10869 -1.00086,-7.88791 -5.12194,-14.22278 -12.5922,-19.35659 -33.44439,-31.20672 -54.91311,-31.20672 -8.64816,0 -13.38555,2.74729 -21.13928,12.25899 -9.65935,11.84936 -12.54952,18.80094 -13.21063,31.77478 -1.44049,28.26917 10.14788,74.54145 21.26087,84.89444 8.56289,7.97729 24.45791,9.32104 42.72196,3.61164 z"
         id="path1944" />
      <path
         style="fill:#ececec;stroke-width:1.33333"
         d="m 381.81809,642.01478 c 10.07686,-2.13496 19.78924,-7.15855 22.83907,-11.81316 6.64793,-10.14604 3.22776,-17.75833 -21.35792,-47.53629 -9.98956,-12.09928 -23.49285,-28.97375 -30.00733,-37.49883 -17.81103,-23.30817 -24.37475,-27.86192 -41.64655,-28.89329 -9.57789,-0.57193 -10.99896,-0.30112 -18.94404,3.61023 -10.24345,5.04284 -16.52351,11.89586 -22.71111,24.78321 -6.64657,13.84329 -10.17936,28.46917 -10.94998,45.33333 -0.80838,17.69016 0.81341,24.95735 6.83645,30.63408 8.77195,8.26757 32.64748,17.32552 56.12332,21.29217 14.70517,2.48471 48.27388,2.5344 59.81809,0.0885 z"
         id="path1942" />
      <path
         style="fill:#ececec;stroke-width:1.33333"
         d="m 835.25057,647.15671 c 31.62323,-4.64997 35.16727,-5.41435 43.15075,-9.30671 10.91488,-5.32157 14.14923,-11.18898 14.72624,-26.71479 0.52737,-14.18992 -1.46892,-25.69594 -8.70871,-50.19447 -2.64512,-8.95075 -5.42285,-18.43957 -6.17274,-21.08628 -1.30086,-4.59134 -0.95407,-5.46429 7.55653,-19.02158 C 896.07501,504.46909 900,495.3994 900,488.02622 c 0,-8.49902 -8.30287,-12.3355 -14.40101,-6.65424 -6.53096,6.08452 -9.53742,17.83194 -9.69259,37.87288 l -0.0936,12.08846 -9.1362,-27.70615 c -10.58921,-32.11252 -16.27464,-44.32705 -22.6342,-48.62719 -3.84067,-2.59694 -6.15683,-2.99874 -17.23957,-2.99065 -24.32339,0.0177 -47.79139,8.30669 -62.76346,22.16819 -12.18826,11.28418 -12.77613,14.02242 -12.41354,57.82246 0.83541,100.92124 9.81956,121.89288 51.04084,119.14432 5.5,-0.36674 20.16276,-2.16115 32.5839,-3.98759 z"
         id="path1940" />
      <path
         style="fill:#ececec;stroke-width:1.33333"
         d="m 534.84143,658.07964 c 10.91938,-2.31448 21.06533,-7.33266 25.51346,-12.61897 4.46223,-5.30305 5.49786,-15.07341 3.71226,-35.02216 -2.67494,-29.88445 -7.22503,-45.12421 -14.81042,-49.60501 -14.73637,-8.705 -75.31704,-8.34267 -99.2006,0.59332 -10.07648,3.77009 -14.32718,7.68424 -18.5403,17.07231 -4.86823,10.84786 -6.5898,21.27318 -5.86516,35.5178 0.71985,14.15054 3.7007,22.04808 10.61234,28.1165 6.1858,5.43112 21.76867,11.81807 35.07032,14.37424 5.86667,1.1274 11.86667,2.30477 13.33334,2.6164 6.74054,1.43213 41.9483,0.69925 50.17476,-1.04443 z"
         id="path1938" />
      <path
         style="fill:#ececec;stroke-width:1.33333"
         d="m 678,659.93732 c 42.75976,-3.65724 56.47088,-9.66722 63.54883,-27.85531 2.42109,-6.22144 2.9044,-10.31579 3.00177,-25.42968 0.11467,-17.78748 0.0607,-18.12703 -4.28365,-26.96514 -8.50891,-17.31058 -22.33238,-24.71976 -56.61075,-30.34256 l -15.67713,-2.57157 -10.98954,3.84276 c -11.15492,3.9006 -38.08378,9.39837 -45.98953,9.3892 -8.10393,-0.009 -18.01636,13.0918 -22.44805,29.66953 -3.96794,14.8429 -3.50067,53.06277 0.78658,64.33911 1.164,3.06156 5.86062,5.12918 14.66147,6.45453 7.42497,1.11813 59.0502,0.74779 74,-0.53087 z"
         id="path1936" />
    </g>
    <path
       style="fill:#0000ff;stroke-width:1.33333"
       d="m 719.72399,188.5343 c 27.69409,-9.20596 107.49476,-20.86833 142.11341,-20.76899 20.14991,0.0579 27.15948,-1.63681 58.82927,-14.22264 17.99572,-7.15163 19.66596,-8.08199 16.66666,-9.28373 -1.83333,-0.73456 -8.43333,-3.5392 -14.66666,-6.23252 -13.78171,-5.95483 -24.2293,-9.52814 -31.33334,-10.7167 -2.93333,-0.49077 -6.98362,-2.05441 -9.00064,-3.47474 -5.36044,-3.7747 -14.04622,-5.35136 -34.77736,-6.31286 -14.3907,-0.66744 -18.7865,-1.31032 -20,-2.92499 -1.86556,-2.48232 -11.7204,-4.69988 -28.88866,-6.5006 C 779.41909,106.07772 463.42693,105.9871 444,107.99482 c -8.43333,0.87157 -15.55476,1.80071 -15.8254,2.06476 -0.27063,0.26406 -1.32121,-0.34905 -2.33463,-1.36247 -1.56788,-1.56787 -3.08474,-1.33832 -10.17461,1.53976 -4.58261,1.86027 -10.73203,4.74992 -13.66536,6.42143 -2.93333,1.6715 -9.38951,4.35816 -14.34704,5.97034 -5.33165,1.73384 -9.57193,3.97428 -10.38024,5.48463 -1.15095,2.15056 -2.88421,2.55619 -10.98629,2.5711 l -9.61976,0.0177 -7.33334,6.63415 c -6.9609,6.29724 -9.43748,7.5195 -22,10.85763 -2.93333,0.77945 -6.83333,2.02065 -8.66666,2.75822 -3.25135,1.30806 -3.16935,1.41827 3.33333,4.4803 3.66667,1.72658 8.28125,3.16062 10.25464,3.18677 1.97339,0.0261 3.9588,0.64752 4.41203,1.38085 0.45322,0.73334 4.23864,1.3397 8.41202,1.34746 9.47606,0.0176 35.13859,3.95217 59.58798,9.13593 33.24917,7.04949 70.51968,9.45804 147.33333,9.5212 76.91756,0.0632 118.65873,2.45156 132.35381,7.57291 16.53928,6.18496 19.40895,6.26258 35.37018,0.95681 z"
       id="path2048" />
    <g
       id="layer4"
       inkscape:label="02"
       style="fill:#00ffff">
      <path
         style="fill:#00ffff;stroke-width:1.33333"
         d="m 394.66667,151.86817 c 0,-4.11984 3.9841,-11.79997 7.1993,-13.87805 4.25658,-2.75115 21.36483,-5.71798 50.13403,-8.69402 32.43108,-3.35485 82.66667,-5.07919 82.66667,-2.83754 0,0.84779 -0.45,1.55249 -1,1.566 -0.55,0.0135 -5.90571,0.89239 -11.90158,1.95305 -5.99586,1.06066 -26.69586,3.16489 -46,4.67607 -53.6091,4.19665 -66.86892,6.93642 -74.24862,15.34143 -4.67542,5.32502 -6.8498,5.91959 -6.8498,1.87306 z"
         id="path2056" />
      <path
         style="fill:#00ffff;stroke-width:1.33333"
         d="m 839.26951,151.38623 c -1.60886,-3.85052 -3.04266,-4.94485 -8.66731,-6.61519 -8.30833,-2.46731 -27.68363,-4.47523 -53.68183,-5.56322 -10.86046,-0.45449 -19.55312,-1.01953 -19.31701,-1.25564 0.23611,-0.2361 11.58813,-1.16364 25.22671,-2.06117 35.05362,-2.30684 59.54481,0.67019 67.65232,8.22347 5.35476,4.98871 2.27217,11.88551 -5.31234,11.88551 -3.27136,0 -4.31314,-0.81458 -5.90054,-4.61376 z"
         id="path2054" />
      <path
         style="fill:#00ffff;stroke-width:1.33333"
         d="m 443.10261,158.99671 c 3.79495,-4.0509 13.93856,-7.93318 28.23072,-10.80474 8.37716,-1.68313 47.36216,-5.94093 48.05474,-5.24836 0.74401,0.74403 -67.15294,18.44126 -74.15808,19.3292 l -5.89666,0.74744 z"
         id="path2052" />
      <path
         style="fill:#00ffff;stroke-width:1.33333"
         d="m 676.66667,169.5121 c -8.56574,-0.77591 -7.41435,-0.98292 14,-2.51707 33.89169,-2.42804 44,-5.23829 44,-12.23262 0,-4.20944 1.90482,-5.42908 8.47904,-5.42908 6.06646,0 10.43881,3.41341 9.93041,7.75252 -0.525,4.48085 -6.99048,8.88065 -16.12485,10.97309 -7.88164,1.80547 -46.1988,2.72911 -60.2846,1.45316 z"
         id="path2050" />
    </g>
  </g>
</svg>
